<svg width="75" height="75" fill="none" xmlns="http://www.w3.org/2000/svg"><circle cx="37.5" cy="37.5" r="37.5" fill="#1D1D1B"/><path fill="#fff" d="M33 65h8v1h-8zm0-57.5l.5 10.5h8L42 7.5 39.5 12l-2-4c-.5 1.167-2 4-2 4L33 7.5zM13.447 35.116h2.663c.563 0 .982-.102 1.257-.307.276-.211.413-.528.413-.95 0-.392-.129-.688-.386-.887-.258-.205-.64-.308-1.143-.308h-2.804v2.452zm0 5.309h2.505c.791 0 1.345-.109 1.661-.325.317-.223.475-.595.475-1.117 0-.468-.152-.82-.457-1.054-.299-.24-.747-.36-1.345-.36h-2.839v2.856zM10.274 43V30.054h6.285c1.505 0 2.616.272 3.33.817.721.54 1.082 1.371 1.082 2.496 0 .698-.161 1.275-.484 1.732-.316.45-.802.8-1.459 1.046.75.193 1.325.541 1.723 1.045.398.498.598 1.12.598 1.864a3.9 3.9 0 0 1-.501 1.968 3.418 3.418 0 0 1-1.389 1.363c-.404.222-.894.38-1.468.474-.574.094-1.459.141-2.654.141h-5.063zm13.21 0V30.054h3.305V43h-3.305zm9.211-7.4h2.47c.668 0 1.157-.123 1.468-.37.316-.246.474-.638.474-1.177 0-.475-.152-.826-.457-1.055-.304-.234-.77-.351-1.397-.351h-2.558V35.6zM29.4 43V30.054h6.197c1.64 0 2.847.293 3.62.879.78.586 1.17 1.494 1.17 2.724 0 .727-.167 1.35-.501 1.872-.328.516-.841.95-1.538 1.301.568.217.97.513 1.204.888.234.369.369 1.022.404 1.96.018.263.035.618.053 1.063.04 1.043.22 1.647.536 1.81V43h-3.472c-.17-.457-.266-1.084-.29-1.88-.023-.798-.047-1.299-.07-1.504-.053-.504-.223-.873-.51-1.107-.287-.235-.718-.352-1.292-.352h-2.215V43H29.4zm13.237 0V30.054h9.835v2.654H45.95v2.285h5.96v2.593h-5.96v2.769h6.733V43H42.636zm10.626 0l4.175-6.645-3.947-6.301h3.78l1.986 3.463 1.977-3.463h3.78l-3.982 6.302L65.25 43h-3.823l-2.171-3.762L57.059 43h-3.797z"/></svg>