<svg width="284" height="46" fill="none" xmlns="http://www.w3.org/2000/svg"><rect x="1.5" y="1.5" width="55" height="34.236" rx="1.5" stroke="#07BBF0"/><path d="M12.64 35.921v-9.123L37.495 1.315M1.315 25.854l25.797-24.54M1.315 14.843L15.157 1.315m9.753 34.606v-9.123L47.876 3.83m2.203 32.091v-9.548M47.562 4.146h9.123m-6.606 22.652H57m-44.36 0L1.315 15.472M24.91 26.483L1.63 3.203m36.494 23.909L12.01 1.315m38.383 25.483L24.596 1.315m25.483 13.528L34.977 1.315m12.585 2.831V1.315M4.146 45.36v-9.44h4.72v6.293L6.977 45.36H4.146zm50.652 0v-9.44h-4.72v6.293l1.888 3.146h2.832zm19.202 0v-9.087h4.72v5.94l-1.888 3.146H74zm125 0v-9.698h4.719v6.552l-1.888 3.146H199zm-19.281 0v-9.064H175v5.918l1.888 3.146h2.831zm70 0v-9.687H245v6.54l1.888 3.147h2.831zm14.281 0V35.5h4.719v6.714l-1.888 3.145H264zm16.719 0V35.5H276v6.714l1.888 3.146h2.831zM38.124 35.921v-8.494l11.955-12.584h6.606M84.355 3v19.196a2 2 0 0 0 2 2h79.636a2 2 0 0 0 2-2V3a2 2 0 0 1 2-2H182c1.105 0 2 .89 2 1.994v30.952a1.983 1.983 0 0 1-1.976 1.988c-12.016.094-75.926.558-111.085.015-1.09-.017-1.939-.906-1.939-1.998V3a2 2 0 0 1 2-2h11.355a2 2 0 0 1 2 2z" stroke="#07BBF0"/><path d="M124.173 18.315H87.989a2 2 0 0 0-2 2v.574a2 2 0 0 0 2 2h36.184a2 2 0 0 0 2-2v-.574a2 2 0 0 0-2-2zm40.185 0H130.46a2 2 0 0 0-2 2v.574a2 2 0 0 0 2 2h33.898a2 2 0 0 0 2-2v-.574a2 2 0 0 0-2-2zM84.355 3.94l13.722 14.375M93.176 1l17.315 17.315M104.938 1l18.622 17.315M118.659 1l16.335 17.315M130.747 1l16.662 17.315M143.162 1l16.009 17.315M156.23 1l11.761 12.742m0-9.802L154.27 18.315M159.17 1l-17.315 17.315M147.409 1l-18.622 17.315M133.688 1l-16.336 17.315M121.599 1l-16.661 17.315M109.185 1L93.176 18.315M96.117 1L84.355 13.742m0-12.742h83.636" stroke="#07BBF0"/><rect x="196.5" y="23.5" width="55" height="12.148" rx="1.5" stroke="#07BBF0"/><path d="M196.5 28.56l4.747-4.56L206 28.56V36m0-7.44l4.61-4.56 4.39 4.56V36m0-7.44l4.61-4.56 4.39 4.56V36m0-7.44l4.61-4.56 4.39 4.56V36m0-7.44l5.122-4.56L243 28.56V36m0-7.5l4-4.5 4.5 4.5" stroke="#07BBF0"/><rect x="262.5" y="15.5" width="20" height="20" rx="1.5" stroke="#07BBF0"/><path d="M269.583 15.292l13.125 13.416m-20.416-9.625L272.5 29.292m2.917-14l-13.125 13.416m20.416-9.625L272.5 29.292m0 0v6.416" stroke="#07BBF0"/></svg>