<svg width="300" height="242" fill="none" xmlns="http://www.w3.org/2000/svg"><path d="M198.166 175.029l23.883-28.001h-16.471l-15.647-6.176 8.235 34.177z" fill="#A19B9B"/><path d="M190.655 134.35l19.431-97.198c1.783-8.92 10.46-14.706 19.38-12.923 8.92 1.783 14.706 10.46 12.923 19.38l-19.431 97.198c-1.083 5.416-6.351 8.929-11.766 7.846l-12.692-2.537c-5.415-1.083-8.928-6.351-7.845-11.766z" fill="#A19B9B"/><path d="M208.049 40.378c2.882 4.736 16.883 13.177 34.589 7.104M206.402 48.613c3.02 4.653 17.687 12.944 36.236 6.979M189.107 138.769c3.02 4.652 17.687 12.943 36.236 6.978M193.509 161.828s7.951 5.765 15.363 3.706" stroke="#fff" stroke-width="4" stroke-linecap="round" stroke-linejoin="round"/><path d="M142 191h131.75c13.393 0 24.25 10.857 24.25 24.25v0c0 13.393-10.857 24.25-24.25 24.25H68" stroke="#A19B9B" stroke-width="4" stroke-linecap="round" stroke-linejoin="round"/><path d="M38.718 147.738c4.756-34.699-11.484-84.712-22.015-109.724-.962-2.285-.182-4.925 2.043-6.019 24.184-11.889 83.759-17.378 99.963-18.681 2.409-.194 4.536 1.328 5.089 3.68 4.645 19.79 23.775 107.639 5.327 139.663-.868 1.507-2.546 2.278-4.281 2.172l-81.31-4.99c-3.064-.188-5.233-3.06-4.816-6.101z" stroke="#A19B9B" stroke-width="4"/><path d="M42.5 154s-9 11.5-18 14.5M52.5 154s-3.5 9.5-18 13.5M63.5 154S55 167 45 169M71.5 156S68 165 59 168.5M81.5 156S78 165.5 69 168.5M91.5 156S88 165 79 168.5M101.5 157S96 166 89 169.5M109.5 158s-5 9-12.5 12.5M118 160s-6.5 10-12.5 12.5M126.5 160s-4.5 11.5-12.5 12.5M20.588 30.5S10.794 19 1 16M30.588 26.5S26.78 17 11 13M42.132 25S32.882 12 22 10M48.603 21.5S44.794 12.5 35 9M60.603 19.5S56.794 10 47 7M72.603 17.5S68.794 8.5 59 5M87.603 16.5S81.618 7.5 74 4M96.603 15.5S91.162 6.5 83 3M105.603 13.5S98.529 3.5 92 1M115.603 13.5S110.706 2 102 1" stroke="#A19B9B" stroke-width="2" stroke-linecap="round" stroke-linejoin="round"/><path d="M66.468 55.39c.422 1.572.373 2.388.227 2.81-.11.317-.334.59-.997.867-.727.304-1.735.509-3.158.766l-.36.064c-1.295.233-2.823.507-4.474.95-1.537.413-3.059.939-4.46 1.424l-.702.242c-1.63.56-3.046 1.016-4.274 1.224-1.238.209-2.053.121-2.602-.166-.49-.256-1.038-.817-1.414-2.22-1.56-5.815 2.068-11.944 8.256-13.605 6.188-1.66 12.398 1.83 13.958 7.644zM111.859 54.806c-.157 1.62-.489 2.367-.775 2.712-.214.257-.519.435-1.237.461-.787.03-1.803-.133-3.226-.392l-.359-.066c-1.295-.237-2.822-.517-4.523-.682-1.585-.154-3.194-.195-4.677-.233l-.741-.02c-1.722-.048-3.21-.118-4.432-.355-1.233-.239-1.965-.607-2.378-1.068-.37-.413-.685-1.13-.545-2.577.581-5.992 6.13-10.457 12.508-9.838 6.378.618 10.966 6.066 10.385 12.058z" stroke="#A19B9B" stroke-width="3"/><path d="M61 102c9.5 11 39.5 13.5 52.5-9.5" stroke="#A19B9B" stroke-width="4" stroke-linecap="round" stroke-linejoin="round"/><ellipse cx="51.5" cy="55" rx="3.5" ry="3" fill="#A19B9B"/><ellipse cx="97.5" cy="50" rx="3.5" ry="3" fill="#A19B9B"/></svg>