<svg width="192" height="353" fill="none" xmlns="http://www.w3.org/2000/svg"><path d="M3 173.5S40.537 193 93 193s96-19.5 96-19.5" stroke="#A19B9B" stroke-width="5" stroke-linecap="round" stroke-linejoin="round"/><path d="M16.5 201s31.245 16 76.5 16c45.255 0 78.5-16 78.5-16" stroke="#A19B9B" stroke-width="4" stroke-linecap="round" stroke-linejoin="round"/><path d="M50.5 226s9.26 10 42.5 10 41.5-6.5 41.5-6.5" stroke="#A19B9B" stroke-width="3" stroke-linecap="round" stroke-linejoin="round"/><path d="M66.42 335.653l8.293-16.389c1.655-3.254 5.747-4.508 9.121-2.79l8.246 4.196c.322-.345.654-.704 1.003-1.084 3.212-3.46 7.606-8.2 11.405-15.713 3.812-7.53 5.033-13.894 5.929-18.541.094-.492.183-.966.276-1.419l-5.533-2.81-2.722-1.388c-3.379-1.72-4.78-5.773-3.133-9.032l8.293-16.39c1.649-3.256 5.742-4.511 9.122-2.79l4.619 2.368-.064.125a21.214 21.214 0 0 1 4.518 4.128c1.244 1.546 2.21 3.094 2.951 4.719 6.048 12.997 3.918 27.377-7.342 49.624-15.565 30.75-34.786 35.089-35.618 35.266-1.821.363-3.637.491-5.56.385a21.06 21.06 0 0 1-5.968-1.214l-.053.092-4.65-2.305c-3.374-1.722-4.778-5.775-3.134-9.038z" fill="#A19B9B"/><path d="M51.718 147.738c4.756-34.699-11.484-84.712-22.015-109.724-.962-2.285-.182-4.925 2.043-6.019 24.184-11.889 83.759-17.378 99.963-18.681 2.409-.194 4.536 1.328 5.089 3.68 4.645 19.79 23.775 107.639 5.327 139.663-.868 1.507-2.546 2.278-4.281 2.172l-81.31-4.99c-3.064-.188-5.233-3.06-4.816-6.101z" stroke="#A19B9B" stroke-width="4"/><path d="M55.5 154s-9 11.5-18 14.5M65.5 154s-3.5 9.5-18 13.5M76.5 154S68 167 58 169M84.5 156S81 165 72 168.5M94.5 156S91 165.5 82 168.5M104.5 156s-3.5 9-12.5 12.5M114.5 157s-5.5 9-12.5 12.5M122.5 158s-5 9-12.5 12.5M131 160s-6.5 10-12.5 12.5M139.5 160s-4.5 11.5-12.5 12.5M33.588 30.5S23.794 19 14 16M43.588 26.5S39.78 17 24 13M55.132 25S45.882 12 35 10M61.603 21.5S57.794 12.5 48 9M73.603 19.5S69.794 10 60 7M85.603 17.5S81.794 8.5 72 5M100.603 16.5S94.618 7.5 87 4M109.603 15.5S104.162 6.5 96 3M118.603 13.5S111.529 3.5 105 1M128.603 13.5S123.706 2 115 1" stroke="#A19B9B" stroke-width="2" stroke-linecap="round" stroke-linejoin="round"/><path d="M79.468 55.39c.422 1.572.373 2.388.227 2.81-.11.317-.334.59-.996.867-.727.304-1.736.509-3.159.766l-.36.064c-1.295.233-2.823.507-4.474.95-1.537.413-3.058.939-4.46 1.424l-.701.242c-1.63.56-3.047 1.016-4.275 1.224-1.238.209-2.053.121-2.601-.166-.491-.256-1.039-.817-1.415-2.22-1.56-5.815 2.068-11.944 8.256-13.605 6.188-1.66 12.398 1.83 13.958 7.644zM124.859 54.806c-.157 1.62-.489 2.367-.775 2.712-.213.257-.519.435-1.237.461-.787.03-1.803-.133-3.226-.392l-.359-.066c-1.295-.237-2.822-.517-4.523-.682-1.584-.154-3.193-.195-4.677-.233l-.741-.02c-1.722-.048-3.209-.118-4.432-.355-1.233-.239-1.965-.607-2.378-1.068-.369-.413-.685-1.13-.545-2.577.582-5.992 6.131-10.457 12.508-9.838 6.378.618 10.966 6.066 10.385 12.058z" stroke="#A19B9B" stroke-width="3"/><path d="M74 102c9.5 11 39.5 13.5 52.5-9.5" stroke="#A19B9B" stroke-width="4" stroke-linecap="round" stroke-linejoin="round"/><ellipse cx="64.5" cy="55" rx="3.5" ry="3" fill="#A19B9B"/><ellipse cx="110.5" cy="50" rx="3.5" ry="3" fill="#A19B9B"/></svg>