<svg width="75" height="75" fill="none" xmlns="http://www.w3.org/2000/svg"><path fill-rule="evenodd" clip-rule="evenodd" d="M37.5 75C58.21 75 75 58.21 75 37.5S58.21 0 37.5 0 0 16.79 0 37.5 16.79 75 37.5 75zM41 65h-8v1h8v-1zM33 7.5l.5 10.5h8L42 7.5 39.5 12l-2-4c-.5 1.167-2 4-2 4L33 7.5zM13.447 35.116h2.663c.563 0 .982-.102 1.257-.307.276-.211.413-.528.413-.95 0-.392-.129-.688-.386-.887-.258-.205-.64-.308-1.143-.308h-2.804v2.452zm0 5.309h2.505c.791 0 1.345-.109 1.661-.325.317-.223.475-.595.475-1.117 0-.468-.152-.82-.457-1.054-.299-.24-.747-.36-1.345-.36h-2.839v2.856zM10.274 43V30.054h6.285c1.505 0 2.616.272 3.33.817.721.54 1.082 1.371 1.082 2.496 0 .698-.161 1.275-.484 1.732-.316.45-.802.8-1.459 1.046.75.193 1.325.541 1.723 1.045.398.498.598 1.12.598 1.864a3.9 3.9 0 0 1-.501 1.968 3.418 3.418 0 0 1-1.389 1.363c-.404.222-.894.38-1.468.474-.574.094-1.459.141-2.654.141h-5.063zm13.21 0V30.054h3.305V43h-3.305zm11.681-7.4h-2.47v-2.953h2.558c.627 0 1.093.117 1.397.351.305.229.457.58.457 1.055 0 .539-.158.931-.474 1.178-.31.246-.8.369-1.468.369zm-5.766-5.546V43h3.296v-4.843h2.215c.574 0 1.005.117 1.292.352.287.234.457.603.51 1.107.023.205.047.706.07 1.503.024.797.12 1.424.29 1.881h3.472v-.448c-.316-.164-.495-.768-.536-1.81-.018-.446-.035-.8-.053-1.064-.035-.938-.17-1.591-.404-1.96-.235-.375-.636-.671-1.204-.888.697-.352 1.21-.785 1.538-1.3.334-.522.5-1.146.5-1.873 0-1.23-.389-2.138-1.168-2.724-.774-.586-1.98-.88-3.621-.88h-6.197zM42.636 43V30.054h9.835v2.654h-6.522v2.285h5.96v2.593h-5.96v2.769h6.733V43H42.636zM53.49 30.054l3.947 6.302L53.262 43h3.797l2.197-3.762L61.426 43h3.824l-4.219-6.645 3.982-6.301h-3.78l-1.977 3.463-1.986-3.463h-3.78z" fill="#fff"/></svg>