<svg width="289" height="284" fill="none" xmlns="http://www.w3.org/2000/svg"><path d="M91.747 231.885s41.081 10.077 92.059-2.32c50.977-12.397 88.673-41.633 88.673-41.633" stroke="#A19B9B" stroke-width="5" stroke-linecap="round" stroke-linejoin="round"/><path d="M111.363 255.416s34.141 8.163 78.114-2.531c43.973-10.693 72.496-34.096 72.496-34.096" stroke="#A19B9B" stroke-width="4" stroke-linecap="round" stroke-linejoin="round"/><path d="M150.307 271.673s11.361 7.529 43.66-.326c32.299-7.854 38.789-16.122 38.789-16.122" stroke="#A19B9B" stroke-width="3" stroke-linecap="round" stroke-linejoin="round"/><path d="M145.717 193.501c-8.248-34.039-41.637-74.662-60.578-94.098-1.73-1.776-1.968-4.518-.296-6.35 18.168-19.901 71.62-46.775 86.228-53.908 2.173-1.061 4.708-.421 6.082 1.568 11.554 16.724 61.455 91.513 55.981 128.062-.257 1.72-1.537 3.051-3.192 3.586L152.43 197.42c-2.921.944-5.99-.936-6.713-3.919z" stroke="#A19B9B" stroke-width="4"/><path d="M151.526 197.948s-4.177 13.993-11.459 20.073M160.835 194.295s.212 10.122-11.824 19.142M171.074 190.276s-3.163 15.207-11.741 20.722M179.252 189.215s.03 9.657-7.07 16.203M188.561 185.562s.212 10.122-7.07 16.203M197.87 181.909s.029 9.656-7.07 16.202M207.544 179.187s-1.832 10.387-7.07 16.202M215.356 177.195s-1.366 10.204-7.069 16.202M223.999 175.951s-2.397 11.684-7.069 16.203M231.912 172.846s.012 12.349-7.07 16.203M86.011 90.989s-13.318-7.127-23.531-6.342M93.859 83.612s-7.016-7.452-23.166-5.41M104.057 77.999s-13.36-8.723-24.22-6.609M108.802 72.376s-6.834-6.986-17.23-6.666M119.242 66.13s-7.016-7.451-17.229-6.666M129.682 59.885s-6.834-6.986-17.229-6.666M143.28 53.474s-8.86-6.191-17.23-6.666M151.292 49.256s-8.353-6.39-17.229-6.667M158.94 44.106s-10.238-6.725-17.23-6.667M168.248 40.453s-8.759-8.916-17.229-6.667" stroke="#A19B9B" stroke-width="2" stroke-linecap="round" stroke-linejoin="round"/><path d="M137.813 97.398c.966 1.309 1.22 2.086 1.238 2.533.013.335-.096.671-.611 1.171-.566.548-1.43 1.107-2.661 1.866l-.311.192c-1.121.689-2.443 1.503-3.818 2.518-1.28.946-2.504 1.992-3.632 2.956l-.564.481c-1.313 1.116-2.465 2.058-3.532 2.7-1.076.647-1.867.864-2.482.797-.551-.06-1.265-.381-2.129-1.551-3.576-4.842-2.438-11.874 2.716-15.68 5.154-3.806 12.209-2.826 15.786 2.017zM179.853 80.272c.446 1.565.41 2.382.27 2.807-.105.318-.325.595-.983.881-.723.315-1.728.535-3.147.814l-.358.07c-1.292.252-2.816.55-4.46 1.017-1.531.436-3.044.985-4.439 1.492l-.696.252c-1.621.584-3.031 1.062-4.256 1.288-1.235.229-2.051.153-2.604-.125-.494-.25-1.05-.801-1.448-2.2-1.648-5.79 1.887-11.973 8.049-13.727 6.163-1.755 12.424 1.64 14.072 7.43z" stroke="#A19B9B" stroke-width="3"/><path d="M149.75 142.784c12.862 6.769 41.702-1.864 45.401-28.023" stroke="#A19B9B" stroke-width="4" stroke-linecap="round" stroke-linejoin="round"/><ellipse cx="123.737" cy="102.503" rx="3.5" ry="3" transform="rotate(-21.427 123.737 102.503)" fill="#A19B9B"/><ellipse cx="164.731" cy="81.044" rx="3.5" ry="3" transform="rotate(-21.427 164.731 81.044)" fill="#A19B9B"/><circle cx="30.375" cy="112.603" r="9" transform="rotate(-20.496 30.375 112.603)" stroke="#A19B9B" stroke-width="2"/><circle cx="50.564" cy="58.083" r="15" transform="rotate(-20.496 50.564 58.083)" stroke="#A19B9B" stroke-width="2"/><circle cx="50.055" cy="96.706" r="5" transform="rotate(-20.496 50.055 96.706)" stroke="#A19B9B" stroke-width="2"/><circle cx="74.269" cy="110.074" r="5" transform="rotate(-20.496 74.269 110.074)" stroke="#A19B9B" stroke-width="2"/><circle cx="85.021" cy="149.48" r="3.73" transform="rotate(-56.624 85.021 149.48)" stroke="#A19B9B" stroke-width="2"/><circle cx="69.598" cy="135.921" r="6.568" transform="rotate(-56.624 69.598 135.921)" stroke="#A19B9B" stroke-width="2"/><circle cx="86.652" cy="135.827" r="1.838" transform="rotate(-56.624 86.652 135.827)" stroke="#A19B9B" stroke-width="2"/><circle cx="99.687" cy="144.414" r="1.838" transform="rotate(-56.624 99.687 144.414)" stroke="#A19B9B" stroke-width="2"/><circle cx="90.706" cy="169.768" r="3.73" transform="rotate(118.847 90.706 169.768)" stroke="#A19B9B" stroke-width="2"/><circle cx="107.152" cy="182.067" r="6.568" transform="rotate(118.847 107.152 182.067)" stroke="#A19B9B" stroke-width="2"/><circle cx="90.158" cy="183.507" r="1.838" transform="rotate(118.847 90.158 183.507)" stroke="#A19B9B" stroke-width="2"/><circle cx="76.486" cy="175.976" r="1.838" transform="rotate(118.847 76.486 175.976)" stroke="#A19B9B" stroke-width="2"/><circle cx="274.854" cy="101.903" r="9" transform="rotate(165.669 274.854 101.903)" stroke="#A19B9B" stroke-width="2"/><circle cx="253.582" cy="115.595" r="5" transform="rotate(165.669 253.582 115.595)" stroke="#A19B9B" stroke-width="2"/><circle cx="230.944" cy="99.704" r="5" transform="rotate(165.669 230.944 99.704)" stroke="#A19B9B" stroke-width="2"/><circle cx="224.485" cy="59.371" r="3.73" transform="rotate(129.541 224.485 59.371)" stroke="#A19B9B" stroke-width="2"/><circle cx="238.363" cy="74.509" r="6.568" transform="rotate(129.541 238.363 74.509)" stroke="#A19B9B" stroke-width="2"/><circle cx="221.397" cy="72.77" r="1.838" transform="rotate(129.541 221.397 72.77)" stroke="#A19B9B" stroke-width="2"/><circle cx="209.36" cy="62.833" r="1.838" transform="rotate(129.541 209.36 62.833)" stroke="#A19B9B" stroke-width="2"/><circle cx="221.012" cy="38.59" r="3.73" transform="rotate(-54.988 221.012 38.59)" stroke="#A19B9B" stroke-width="2"/><circle cx="205.982" cy="24.596" r="6.568" transform="rotate(-54.988 205.982 24.596)" stroke="#A19B9B" stroke-width="2"/><circle cx="223.032" cy="24.989" r="1.838" transform="rotate(-54.988 223.032 24.99)" stroke="#A19B9B" stroke-width="2"/><circle cx="235.816" cy="33.946" r="1.838" transform="rotate(-54.988 235.816 33.946)" stroke="#A19B9B" stroke-width="2"/></svg>