<svg width="285" height="46" fill="none" xmlns="http://www.w3.org/2000/svg"><path d="M278.5 38h-74L199 7.5h2.5V6h4l7 16.5h58l7-17.5h4v2.5h2.5L278.5 38z" stroke="#07BBF0"/><path d="M205.5 2v4l7 16.5h58l7-17.5V2h-72zm71 42.5L275 38h3.5l-.5 6.5h-1.5zm-70 0L208 38h-3.5l.5 6.5h1.5zM47 37.5H6.5L1 8l2-2.5h43L47 8v29.5zM3 2v3.5h5.5V2H3zm3.5 43v-7.5h2V45h-2zm38 0v-7.5h2V45h-2zm68.5-7.5H72.5L67 8l2-2.5h43l1 2.5v29.5zM69 2v3.5h5.5V2H69zm3.5 43v-7.5h2V45h-2zm38 0v-7.5h2V45h-2z" stroke="#07BBF0"/><path d="M69 5.5L67 8l6 29.5h40V23H81L75 5.5h-6zM135 1v3.5h5.5V1H135zm3.5 43v-7.5h2V44h-2zm38 0v-7.5h2V44h-2zM135 4.5L133 7l6 29.5h40V22h-32l-6-17.5h-6z" stroke="#07BBF0"/></svg>