<svg width="275" height="45" fill="none" xmlns="http://www.w3.org/2000/svg"><path d="M.5 9.634h42.09a1.5 1.5 0 0 1 1.5 1.5v22.173a1.5 1.5 0 0 1-1.5 1.5H.5V9.634zm0-3.877h40.151a1.5 1.5 0 0 1 1.5 1.5v.847a1.5 1.5 0 0 1-1.5 1.5H.5V5.757zM.508.91h4.918a4.5 4.5 0 0 1 4.5 4.5v.316H.508V.91z" stroke="#07BBF0"/><path fill="#C4C4C4" stroke="#07BBF0" stroke-width=".969" d="M2.423 34.822h.969v9.693h-.969zm37.805 0h.969v9.693h-.969z"/><path d="M191.479 34.859l-1.62-8.641h71.705l-1.62 8.64h-68.465z" stroke="#07BBF0"/><path d="M185.389 3.901a1.5 1.5 0 0 1 1.473-1.786h36.548a1.5 1.5 0 0 1 1.5 1.5V34.86h-33.512L185.389 3.9z" stroke="#07BBF0"/><path d="M265.513 3.857a1.5 1.5 0 0 0-1.481-1.742h-37.827a1.5 1.5 0 0 0-1.5 1.5V34.86h35.753l5.055-31.002z" stroke="#07BBF0"/><path d="M260.35 34.859l5.25-30.333h3.052c2.86 0 4.995 2.633 4.403 5.431l-5.268 24.902h-7.437zm-68.698 0l-6.416-30.333h-3.068a4.5 4.5 0 0 0-4.402 5.431l5.268 24.902h8.618z" stroke="#07BBF0"/><path fill="#C4C4C4" stroke="#07BBF0" stroke-width=".969" d="M190.475 34.822h.969v9.693h-.969zm67.958 0h.969v9.693h-.969z"/><path d="M192.872 26.32h8.436c-.603-3.012-7.231-4.217-8.436 0zm9.641 0h8.436c-.603-3.012-7.231-4.217-8.436 0zm9.641 0h8.436c-.603-3.012-7.231-4.217-8.436 0zm16.872 0h8.436c-.603-3.012-7.231-4.217-8.436 0zm9.641 0h8.436c-.603-3.012-7.231-4.217-8.436 0zm9.641 0h8.436c-.603-3.012-7.231-4.217-8.436 0zM88.5 3.32h42.09a1.5 1.5 0 0 1 1.5 1.5v28.54a1.5 1.5 0 0 1-1.5 1.5H88.5V3.321z" stroke="#07BBF0"/><path d="M88.5.91h5.347a4.5 4.5 0 0 1 4.5 4.5v29.45H88.5V.91z" stroke="#07BBF0"/><path fill="#C4C4C4" stroke="#07BBF0" stroke-width=".969" d="M90.423 34.822h.969v9.693h-.969zm37.805 0h.969v9.693h-.969z"/><path d="M103.667 27.243h8.436c-.603-3.013-7.231-4.218-8.436 0zm13.256 0h8.436c-.603-3.013-7.231-4.218-8.436 0zm-28.423.18h39.872a3.718 3.718 0 0 1 0 7.436H88.5v-7.436z" stroke="#07BBF0"/></svg>